<svg xmlns="http://www.w3.org/2000/svg" version="1.1" xmlns:xlink="http://www.w3.org/1999/xlink" xmlns:svgjs="http://svgjs.dev/svgjs" width="2000" height="1500" viewBox="0 0 2000 1500"><rect width="2000" height="1500" fill="#925626"></rect><g transform="matrix(0.4444444444444444,0,0,0.4444444444444444,555.5556208333335,250)"><svg viewBox="0 0 320 360" data-background-color="#925626" preserveAspectRatio="xMidYMid meet" height="2250" width="2000" xmlns="http://www.w3.org/2000/svg" xmlns:xlink="http://www.w3.org/1999/xlink"><g id="tight-bounds" transform="matrix(1,0,0,1,0.000023499999997511622,0)"><svg viewBox="0 0 320 360" height="360" width="320"><g><svg></svg></g><g><svg viewBox="0 0 320 360" height="360" width="320"><g><path transform="translate(-74.99272,-51.79039) scale(4.65793,4.65793)" d="M20.6 59.9l0.8 1-0.4-1.3c-0.1-0.6-0.8 0.1-0.4 0.3M21.5 59.3c0.3 0.5 0.6 1 0.6 1.5 0 0.7 0.6 1 1.1 1.2-0.7-0.8-1.1-3-1.7-2.7M59.9 16.9c1.7 0 3.3-0.2 5.1 0.2 4.4 1.1 8.1 3.3 10.6 6.4l7 11.2c0.3 2.8 0.9 5.9 0.8 9.3 0.7 0 0.6-1 1.4-1.2-0.8 2-1.2 4.5-1.4 7.4-0.5-1.6 0-4 0.1-5.3-0.7 1.1-1.1 0.3-1.1-0.2 0.1-0.8-0.3-0.7-0.6-1-1.1-1-1.8-2.1-2.6-3.8 0.5-1.3 0.6-3.2-1-4.2-0.5-0.3-1.1-0.8-1.4-1.6-0.4-1.1-1.1-2.4-0.9-4.1 0.1-0.5-1.5 1.1-2.4 0.4-3.9-2.7-7.8-5.8-12.5-8.4-2.5 0-4.3-0.9-5.2-2-0.8-1-0.2-2.3 1-2.4 0.7 0 1.5-0.2 2.1 0.2 0.1-0.4 0.5-0.9 1-0.9M50 14.6l0.2 0.1c1 0.2 1.5 1.6 2.6 1.1 0 0.7 0.1 1.4-0.1 1.9-0.3 0.8-1.2 0.8-1.9 0.8-6.7-0.4-10.6 2.4-14.7 4.8-1.1 0.7-2.3 1.2-3.2 2.1-4.3 4-9 7.7-10.1 15.1l-0.9 8.2c-0.1 0.9-1.1 1.8-0.9 2.9l0.7 4.9c-0.7-0.7-1.1 0.2-0.9 0.6 0.1 0.3 0.5 1.3 1.1 0.4 0.8 1.5 1.6 4.4 2.7 5.7 3.4 4 7.8 7.6 11.4 11.2 0.9-0.2 1.6-0.2 1.8-0.8 0.3 0.6-0.3 1.2-0.8 1.3 1.6 1 3.4 1.9 5.8 2.1 3.1 0.2 6 0.7 8.7 1.4 1.4-0.4 2.8-0.6 4.3-0.7 0.5 0 0.8-0.8 1.4-1l0.1-1c0.6 0.9 0.5-0.3 0.1-0.9 0.7 0.6 0.9 1.1 1.2 1.5 0-0.3 0.8-1.4 0.8-0.1l0.2-1.3c0.3-0.2 0.4 1.1 0.7 0.2 0.3-0.9 0.9-0.2 1.5-0.5-0.2 0.4-0.1 1.2 0.6 0.7l0.8-0.7c0.5 1.2 1.3 0.7 1.7 0.5 4.4-2.8 8.8-6.1 13-9.4l-0.1 1.3 0.5-1.6c0.5 0.5 0.9 0.1 1.1-0.2 0.6-1 1.4-2 2.7-2.9-1.6 4.3-3.5 7.7-5.9 10.5l-1 1.2c0 0.7-0.2 1.6-1 1.7-0.4 0.1-1.2-0.2-1.8 0.4-0.3 0.4 0.7 1.2-0.1 0.6-0.7-0.5-1.4 0-2.2 0.2-0.6 0.2 0.4 0.8 0.6 1.2 0.2 0.4 0.4 0.8 0.3 1.3l-1.1-1.2c-1.3 0.7-2.1 2-3.2 3-0.5 0.4-0.3 1.1-0.3 1.7-0.7 0-1.5-0.2-1.9 0.2-0.3 0.4-0.2 1-0.2 1.6-1-0.1-1.1-1.6-2-1.3-0.9 0.2-1.9 0.3-2.7 0.8 0.6 1.2-1 0.5-0.8 0.7-1.5-0.9-2.8-1.6-4.4-1-3.4-1.1-7.6-0.6-10.7-0.2 0-0.5 0.1-1-0.1-1.1-0.2 0.5-0.8 0.3-0.7 0.3-1.9-1.3-3.8-2.1-5.8-3.2-1.8 0.2-3.5-0.7-4-1.2-1.4-1.3-3-0.6-4.3-0.9-2.8-0.7-3.8-3.6-4.1-5.6-0.2-1-1-1.4-1.3-1.3-1.3-4.2-3.3-8-4.9-11.9-0.4-1-0.3-2-0.3-3.1 0.5 0.2 1 0.1 0.9-0.6-0.5-3.3-1.7-5.8-3-8.2 0.7-3.4 0.8-7.4 2.4-10.4 1.4-2.7 4-4.1 5.8-6.4 0.6-0.8 0.6-1.9 1.2-2.6 2-2 4-4.1 6.2-5.9 1-0.8 2.2 0 3.7-0.3 0.5-1.8 2.5-3.4 4.4-2.9 0.8 0.2 2.4-1.9 2.9-2.1 0.8-0.3 0.4 0.8 0.4 1.5 1.9-1.5 4.5-2.3 6.9-3.2" fill="#b4ddcf" fill-rule="nonzero" stroke="none" stroke-width="1" stroke-linecap="butt" stroke-linejoin="miter" stroke-miterlimit="10" stroke-dasharray="" stroke-dashoffset="0" font-family="none" font-weight="none" font-size="none" text-anchor="none" style="mix-blend-mode: normal" data-fill-palette-color="tertiary"></path></g><g transform="matrix(1,0,0,1,70.08999999999999,90.08999999999999)"><svg viewBox="0 0 179.82000000000002 179.82000000000002" height="179.82000000000002" width="179.82000000000002"><g><svg viewBox="0 0 179.82000000000002 179.82000000000002" height="179.82000000000002" width="179.82000000000002"><g><svg viewBox="0 0 179.82000000000002 179.82000000000002" height="179.82000000000002" width="179.82000000000002"><g id="textblocktransform"><svg viewBox="0 0 179.82000000000002 179.82000000000002" height="179.82000000000002" width="179.82000000000002" id="textblock"><g><svg viewBox="0 0 179.82000000000002 179.82000000000002" height="179.82000000000002" width="179.82000000000002"><g transform="matrix(1,0,0,1,31.63202686155772,31.63202686155772)"><svg viewBox="0 0 116.55594627688458 116.55594627688458" height="116.55594627688458" width="116.55594627688458"><g id="icon-0"><circle r="58" cx="58.27797313844229" cy="58.27797313844229" fill="#b4ddcf" data-fill-palette-color="accent"></circle><svg xmlns="http://www.w3.org/2000/svg" xmlns:xlink="http://www.w3.org/1999/xlink" version="1.0" x="17.483391941532684" y="17.483391941532684" viewBox="10 10 80 80" enable-background="new 0 0 100 100" xml:space="preserve" height="81.58916239381921" width="81.58916239381921" class="icon-xg-0" data-fill-palette-color="quaternary" id="xg-0"><path fill="none" stroke="#925626" stroke-linecap="round" stroke-linejoin="round" stroke-miterlimit="10" d="M78.33 56.667l1.945 15.555L78.33 56.667z"></path><path fill="none" stroke="#925626" stroke-linecap="round" stroke-linejoin="round" stroke-miterlimit="10" d="M75.689 22.862v-3.157C75.021 14.236 70.37 10 64.722 10c-5.647 0-10.298 4.235-10.968 9.704v3.157c-1.433 0.509-2.461 1.859-2.461 3.461 0 3.145 1.596 5.689 3.582 5.778 1.828 5.631 5.549 9.496 9.847 9.496 4.297 0 8.016-3.864 9.846-9.496 1.986-0.089 3.583-2.633 3.583-5.778C78.15 24.721 77.118 23.371 75.689 22.862z"></path><path fill="none" stroke="#925626" stroke-linecap="round" stroke-linejoin="round" stroke-miterlimit="10" d="M63.359 24.58h-6.806v1.945c0 1.071 0.877 1.947 1.946 1.947h2.917c1.069 0 1.942-0.876 1.942-1.947V24.58z"></path><path fill="none" stroke="#925626" stroke-linecap="round" stroke-linejoin="round" stroke-miterlimit="10" d="M56.554 24.58l-2.8-1.718L56.554 24.58z"></path><path fill="none" stroke="#925626" stroke-linecap="round" stroke-linejoin="round" stroke-miterlimit="10" d="M66.081 24.58h6.806v1.945c0 1.071-0.875 1.947-1.944 1.947h-2.916c-1.071 0-1.945-0.876-1.945-1.947V24.58z"></path><path fill="none" stroke="#925626" stroke-linecap="round" stroke-linejoin="round" stroke-miterlimit="10" d="M72.889 24.58l2.801-1.718L72.889 24.58z"></path><path fill="none" stroke="#925626" stroke-linecap="round" stroke-linejoin="round" stroke-miterlimit="10" d="M63.359 24.58h2.722H63.359z"></path><path fill="none" stroke="#925626" stroke-linecap="round" stroke-linejoin="round" stroke-miterlimit="10" d="M62.292 35.745c1.342 1.341 3.519 1.341 4.86 0C65.811 37.086 63.634 37.086 62.292 35.745z"></path><path fill="none" stroke="#925626" stroke-linecap="round" stroke-linejoin="round" stroke-miterlimit="10" d="M75.689 22.862c-3.038 0-5.788-1.231-7.78-3.221l0 0c-2.147-2.147-4.961-3.222-7.777-3.222-3.522 0-6.378 2.885-6.378 6.443v-3.157C54.424 14.236 59.074 10 64.722 10c5.648 0 10.299 4.235 10.968 9.704V22.862z"></path><path fill="none" stroke="#925626" stroke-linecap="round" stroke-linejoin="round" stroke-miterlimit="10" d="M64.722 48.889c3.219 0 6.066-1.571 7.834-3.981-0.535-0.258-1.031-0.585-1.446-1.002-0.941-0.937-1.52-2.235-1.52-3.668v-0.429c-1.469 1.139-3.119 1.788-4.868 1.788-1.748 0-3.398-0.649-4.866-1.788v0.429c0 1.433-0.583 2.732-1.521 3.668-0.417 0.417-0.911 0.744-1.449 0.999C58.656 47.317 61.503 48.889 64.722 48.889z"></path><path fill="none" stroke="#925626" stroke-linecap="round" stroke-linejoin="round" stroke-miterlimit="10" d="M72.792 45.033c-0.084-0.034-0.155-0.089-0.236-0.125-1.768 2.41-4.615 3.981-7.834 3.981s-6.065-1.571-7.836-3.984c-0.078 0.04-0.151 0.092-0.236 0.128l-3.415 1.415c2.415 3.8 6.651 6.33 11.486 6.33 4.837 0 9.072-2.529 11.489-6.33L72.792 45.033z"></path><path fill="none" stroke="#925626" stroke-linecap="round" stroke-linejoin="round" stroke-miterlimit="10" d="M58.889 85.556H10v2.224C10 89.002 11.001 90 12.223 90h44.444c1.222 0 2.222-0.998 2.222-2.221V85.556z"></path><path fill="none" stroke="#925626" stroke-linecap="round" stroke-linejoin="round" stroke-miterlimit="10" d="M58.889 82.219c0 1.833-1.5 3.333-3.333 3.333H13.335c-1.834 0-3.335-1.5-3.335-3.333V57.774c0-1.833 1.5-3.335 3.335-3.335h42.221c1.833 0 3.333 1.502 3.333 3.335V82.219z"></path><path fill="none" stroke="#925626" stroke-linecap="round" stroke-linejoin="round" stroke-miterlimit="10" d="M55.556 54.439c1.833 0 3.333 1.502 3.333 3.335v14.447H90l-0.004-14.826c0-2.469-1-4.704-2.614-6.321L76.21 46.448c-2.417 3.8-6.652 6.33-11.489 6.33-4.835 0-9.071-2.529-11.486-6.33l-11.172 4.626c-0.938 0.938-1.66 2.089-2.107 3.365H55.556z"></path><circle fill="none" stroke="#925626" stroke-linecap="round" stroke-linejoin="round" stroke-miterlimit="10" cx="34.444" cy="70" r="3.3"></circle></svg></g></svg></g><g id="text-0"><path d="M97.169 17.965l-14.743 0.138-0.013-1.33 1.05-0.01c0.353-0.003 0.656-0.093 0.907-0.268 0.252-0.169 0.374-0.59 0.368-1.263v0l-0.114-12.155c-0.007-0.72-0.134-1.172-0.382-1.356-0.242-0.184-0.549-0.275-0.923-0.271v0l-1.049 0.01-0.012-1.329 13.963-0.131 0.144 4.627-1.76 0.016-0.141-1.178c-0.072-0.619-0.23-1.091-0.473-1.415-0.25-0.331-0.634-0.494-1.154-0.489v0l-4.228 0.04 0.059 6.297 5.967-0.056 0.014 1.509-5.967 0.056 0.066 7.097 5.038-0.047c0.5-0.005 0.871-0.188 1.115-0.55 0.237-0.362 0.396-0.82 0.477-1.374v0l0.188-1.182 1.74-0.016z" fill="#a0cdbe" data-fill-palette-color="primary"></path><path d="M6.912 92.333c0-1.138 0.922-2.06 2.06-2.06 1.138 0 2.06 0.922 2.06 2.06 0 1.138-0.922 2.06-2.06 2.06-1.138 0-2.06-0.922-2.06-2.06z" fill="#a0cdbe" data-fill-palette-color="primary"></path><path d="M168.688 92.333c0-1.138 0.922-2.06 2.06-2.06 1.138 0 2.06 0.922 2.059 2.06 0 1.138-0.922 2.06-2.059 2.06-1.138 0-2.06-0.922-2.06-2.06z" fill="#a0cdbe" data-fill-palette-color="primary"></path></g><g id="text-1"><path d="M7.445 123.377v0c-0.717-2.1-0.665-3.878 0.155-5.334 0.82-1.456 2.318-2.555 4.494-3.297v0l4.03-1.376c2.176-0.743 4.029-0.791 5.559-0.144 1.53 0.647 2.653 2.017 3.367 4.111v0c0.23 0.675 0.38 1.31 0.45 1.906 0.063 0.598 0.071 1.148 0.025 1.65-0.047 0.502-0.126 0.941-0.238 1.317v0l-1.978 0.886c0.193-0.65 0.308-1.376 0.344-2.177 0.036-0.801-0.108-1.678-0.432-2.63v0c-0.486-1.425-1.277-2.36-2.372-2.803-1.093-0.437-2.421-0.388-3.985 0.146v0l-3.926 1.339c-1.551 0.529-2.63 1.31-3.236 2.341-0.606 1.031-0.659 2.278-0.16 3.74v0c0.321 0.94 0.744 1.725 1.268 2.356 0.517 0.626 1.068 1.139 1.655 1.537v0l-2.165 0.527c-0.318-0.23-0.656-0.53-1.014-0.9-0.355-0.379-0.692-0.831-1.012-1.355-0.316-0.533-0.592-1.146-0.829-1.84z" fill="#a0cdbe" data-fill-palette-color="primary"></path><path d="M23.751 150.749v0c-1.277-1.503-1.84-2.988-1.687-4.456 0.152-1.458 0.989-2.834 2.512-4.128v0l1.592-1.353c1.518-1.29 3.011-1.89 4.479-1.799 1.472 0.096 2.842 0.89 4.111 2.383v0c1.273 1.498 1.836 2.979 1.689 4.442-0.152 1.458-0.987 2.832-2.505 4.122v0l-1.592 1.353c-1.523 1.295-3.017 1.899-4.481 1.813-1.473-0.087-2.846-0.879-4.118-2.377zM25.168 149.545v0c0.785 0.924 1.657 1.395 2.615 1.411 0.958 0.016 1.956-0.416 2.992-1.295v0l1.79-1.522c1.031-0.876 1.613-1.786 1.747-2.73 0.139-0.948-0.185-1.885-0.971-2.809v0c-0.785-0.924-1.659-1.397-2.622-1.418-0.953-0.021-1.945 0.407-2.976 1.283v0l-1.79 1.521c-1.036 0.88-1.623 1.795-1.762 2.743-0.134 0.954 0.191 1.892 0.977 2.816z" fill="#a0cdbe" data-fill-palette-color="primary"></path><path d="M49.787 171.055v0c-1.742-0.926-2.813-2.099-3.212-3.519-0.397-1.411-0.127-2.999 0.811-4.764v0l0.981-1.845c0.935-1.759 2.102-2.868 3.499-3.325 1.403-0.454 2.97-0.221 4.7 0.699v0c1.736 0.923 2.805 2.091 3.209 3.505 0.397 1.411 0.128 2.996-0.807 4.756v0l-0.981 1.844c-0.938 1.765-2.103 2.878-3.495 3.339-1.401 0.463-2.969 0.233-4.705-0.69zM50.66 169.413v0c1.071 0.569 2.055 0.685 2.951 0.347 0.897-0.338 1.664-1.108 2.303-2.309v0l1.102-2.074c0.635-1.195 0.84-2.255 0.616-3.182-0.221-0.933-0.867-1.684-1.938-2.253v0c-1.071-0.569-2.058-0.686-2.961-0.351-0.894 0.333-1.658 1.096-2.293 2.291v0l-1.102 2.074c-0.638 1.2-0.846 2.267-0.625 3.2 0.227 0.936 0.876 1.688 1.947 2.257z" fill="#a0cdbe" data-fill-palette-color="primary"></path><path d="M81.128 161.458l-3.163 18.362-2.227-0.384 3.164-18.362z" fill="#a0cdbe" data-fill-palette-color="primary"></path><path d="M129.337 170.921v0l-4.005 1.935-0.856-1.774 3.924-1.895c1.434-0.693 2.326-1.604 2.676-2.735 0.343-1.128 0.165-2.418-0.537-3.87v0l-1.743-3.609c-0.707-1.464-1.607-2.41-2.701-2.836-1.1-0.424-2.367-0.289-3.801 0.403v0l-3.934 1.899-0.852-1.764 4.015-1.938c2.088-1.008 3.929-1.235 5.522-0.68 1.596 0.562 2.882 1.853 3.858 3.876v0l1.756 3.637c0.974 2.016 1.186 3.827 0.636 5.432-0.55 1.605-1.869 2.911-3.958 3.919zM118.174 156.353l7.815 16.185-2.079 1.004-7.815-16.185z" fill="#a0cdbe" data-fill-palette-color="primary"></path><path d="M156.689 149.891v0c-1.392 1.562-2.821 2.4-4.287 2.514-1.471 0.109-2.916-0.469-4.334-1.732v0l-1.829-1.629c-1.443-1.285-2.227-2.644-2.352-4.077-0.13-1.427 0.435-2.848 1.693-4.261v0c0.851-0.955 1.737-1.594 2.658-1.916 0.921-0.322 1.851-0.355 2.791-0.098 0.936 0.262 1.856 0.797 2.762 1.604v0l0.373 0.332c0.224 0.199 0.441 0.406 0.652 0.621 0.206 0.219 0.408 0.439 0.604 0.659v0l-1.396 1.567c-0.325-0.316-0.635-0.61-0.929-0.881-0.304-0.27-0.58-0.516-0.828-0.738v0c-0.622-0.554-1.238-0.924-1.849-1.111-0.61-0.187-1.202-0.183-1.776 0.011-0.584 0.194-1.141 0.59-1.673 1.187v0c-0.785 0.881-1.116 1.768-0.993 2.663 0.113 0.895 0.647 1.768 1.602 2.619v0l0.978 0.871 0.216 0.178 0.978 0.871c0.423 0.377 0.864 0.653 1.322 0.83 0.454 0.181 0.925 0.249 1.413 0.202 0.488-0.047 0.983-0.222 1.485-0.525 0.502-0.303 1.007-0.74 1.517-1.312v0c0.594-0.667 1.059-1.364 1.395-2.092 0.336-0.727 0.578-1.48 0.726-2.258v0l1.331 1.467c-0.119 0.715-0.362 1.449-0.73 2.201-0.362 0.757-0.869 1.502-1.52 2.233zM153.817 141.122l1.284 1.144-6.496 7.292-1.284-1.143z" fill="#a0cdbe" data-fill-palette-color="primary"></path><path d="M158.013 121.284l12.73 0.607 0.117-0.319-10.123-7.743 0.81-2.216 11.361 8.898-1.283 3.511-14.421-0.522z" fill="#a0cdbe" data-fill-palette-color="primary"></path></g></svg></g></svg></g></svg></g></svg></g></svg></g></svg></g><defs></defs></svg><rect width="320" height="360" fill="none" stroke="none" visibility="hidden"></rect></g></svg></g></svg>