<svg xmlns="http://www.w3.org/2000/svg" version="1.1" xmlns:xlink="http://www.w3.org/1999/xlink" xmlns:svgjs="http://svgjs.dev/svgjs" width="2000" height="1500" viewBox="0 0 2000 1500"><rect width="2000" height="1500" fill="#faf0ca"></rect><g transform="matrix(0.75,0,0,0.75,249.090909090909,282.7536437246963)"><svg viewBox="0 0 396 247" data-background-color="#faf0ca" preserveAspectRatio="xMidYMid meet" height="1247" width="2000" xmlns="http://www.w3.org/2000/svg" xmlns:xlink="http://www.w3.org/1999/xlink"><g id="tight-bounds" transform="matrix(1,0,0,1,0.2400000000000091,-0.09999999999999432)"><svg viewBox="0 0 395.52 247.2" height="247.2" width="395.52"><g><svg></svg></g><g><svg viewBox="0 0 395.52 247.2" height="247.2" width="395.52"><mask id="58ef7980-007c-4e28-a6f1-3a205ef1b4a3"><rect width="640" height="400" fill="white"></rect><g transform="matrix(1,0,0,1,69.6855850860041,37.08)"><svg viewBox="0 0 256.1488298279918 173.04" height="173.04" width="256.1488298279918"><g><svg viewBox="0 0 256.1488298279918 173.04" height="173.04" width="256.1488298279918"><g><svg viewBox="0 0 316.416 213.7531710637417" height="173.04" width="256.1488298279918"><g><svg viewBox="0 0 316.416 213.7531710637417" height="213.7531710637417" width="316.416"><g id="SvgjsG5784"><svg viewBox="0 0 316.416 213.7531710637417" height="213.7531710637417" width="316.416" id="SvgjsSvg5783"><g><svg viewBox="0 0 316.416 135.25362229747327" height="135.25362229747327" width="316.416"><g transform="matrix(1,0,0,1,0,0)"><svg width="316.416" viewBox="-0.2200000000000002 -37.48 96.96 42.029999999999994" height="135.25362229747327" data-palette-color="#0d3b66"><path d="M7.88 0L3.78 0 3.78-31.95 7.88-31.95 7.88 0ZM23.7 0L5 0 5-3.48 23.7-3.48 23.7 0ZM23.18-14.58L6.13-14.58 6.13-18.03 23.18-18.03 23.18-14.58ZM23.55-28.48L4.98-28.48 4.98-31.95 23.55-31.95 23.55-28.48ZM33.6 0L29.57 0 29.57-33.13 33.6-33.13 33.6 0ZM49.02-2.78L49.62-2.78 56.37-24.4 60.57-24.4 52.65 0 46 0 38.07-24.4 42.27-24.4 49.02-2.78ZM69.04 0L64.99 0 64.99-24.4 69.04-24.4 69.04 0ZM67.02-28.4L67.02-28.4Q65.77-28.4 65.16-29.06 64.54-29.73 64.54-30.88L64.54-30.88 64.54-31Q64.54-32.18 65.16-32.83 65.77-33.48 67.02-33.48L67.02-33.48Q68.27-33.48 68.89-32.83 69.52-32.18 69.52-31L69.52-31 69.52-30.88Q69.52-29.7 68.89-29.05 68.27-28.4 67.02-28.4ZM83.27 0.55L83.27 0.55Q80.32 0.55 78.12-0.09 75.92-0.73 74.47-1.48L74.47-1.48 74.09-5.23Q75.92-4.28 78.1-3.58 80.29-2.88 83.07-2.88L83.07-2.88Q85.89-2.88 87.32-3.78 88.74-4.67 88.74-6.45L88.74-6.45 88.74-6.73Q88.74-7.88 88.2-8.63 87.67-9.38 86.27-9.95 84.87-10.53 82.29-11.1L82.29-11.1Q79.22-11.78 77.44-12.69 75.67-13.6 74.9-14.95 74.14-16.3 74.14-18.25L74.14-18.25 74.14-18.48Q74.14-21.68 76.37-23.33 78.59-24.98 83.07-24.98L83.07-24.98Q85.94-24.98 88.05-24.33 90.17-23.68 91.52-22.88L91.52-22.88 91.89-19.45Q90.27-20.4 88.17-21.03 86.07-21.65 83.44-21.65L83.44-21.65Q81.54-21.65 80.37-21.26 79.19-20.88 78.67-20.16 78.14-19.45 78.14-18.45L78.14-18.45 78.14-18.25Q78.14-17.15 78.67-16.39 79.19-15.63 80.55-15.06 81.92-14.5 84.34-13.98L84.34-13.98Q87.47-13.35 89.3-12.48 91.14-11.6 91.94-10.26 92.74-8.93 92.74-6.83L92.74-6.83 92.74-6.4Q92.74-2.95 90.34-1.2 87.94 0.55 83.27 0.55Z" opacity="1" transform="matrix(1,0,0,1,0,0)" fill="black" class="wordmark-text-0" id="SvgjsPath5782" stroke-width="7" stroke="black" stroke-linejoin="round"></path></svg></g></svg></g><g transform="matrix(1,0,0,1,3.5,161.73559217019428)"><svg viewBox="0 0 309.416 52.017578893547395" height="52.017578893547395" width="309.416"><g transform="matrix(1,0,0,1,0,0)"><svg width="309.416" viewBox="-1.4 -37.48 245.45000000000002 42.11" height="52.017578893547395" data-palette-color="#0d3b66"><path d="M14.45 0.58L14.45 0.58Q8.53 0.58 5.56-2.75 2.6-6.08 2.6-12.2L2.6-12.2 2.6-19.78Q2.6-25.9 5.55-29.21 8.5-32.52 14.4-32.52L14.4-32.52Q16.3-32.52 17.86-32.18 19.43-31.83 20.65-31.28 21.88-30.73 22.73-30.13L22.73-30.13 23.08-26.28Q21.6-27.33 19.61-28.11 17.63-28.9 14.95-28.9L14.95-28.9Q10.93-28.9 8.88-26.51 6.83-24.13 6.83-19.73L6.83-19.73 6.83-12.35Q6.83-7.98 8.9-5.56 10.98-3.15 15.1-3.15L15.1-3.15Q17.75-3.15 19.79-3.93 21.83-4.7 23.33-5.83L23.33-5.83 22.98-1.88Q22.13-1.28 20.88-0.7 19.63-0.13 18.01 0.23 16.4 0.58 14.45 0.58ZM38.37 0.63L38.37 0.63Q33.12 0.63 30.41-2.21 27.7-5.05 27.7-10.38L27.7-10.38 27.7-14.1Q27.7-19.4 30.42-22.23 33.15-25.05 38.37-25.05L38.37-25.05Q43.62-25.05 46.34-22.23 49.05-19.4 49.05-14.1L49.05-14.1 49.05-10.38Q49.05-5.05 46.34-2.21 43.62 0.63 38.37 0.63ZM38.37-2.68L38.37-2.68Q41.62-2.68 43.31-4.6 45-6.53 45-10.15L45-10.15 45-14.33Q45-17.93 43.31-19.84 41.62-21.75 38.37-21.75L38.37-21.75Q35.15-21.75 33.45-19.84 31.75-17.93 31.75-14.33L31.75-14.33 31.75-10.15Q31.75-6.53 33.45-4.6 35.15-2.68 38.37-2.68ZM62.72 0.53L62.72 0.53Q58.32 0.53 56.02-2.2 53.72-4.93 53.72-10.15L53.72-10.15 53.72-14.18Q53.72-19.43 56.05-22.19 58.37-24.95 62.9-24.95L62.9-24.95Q65.15-24.95 66.8-24.19 68.45-23.43 69.47-22.05 70.5-20.68 70.84-18.8L70.84-18.8 72.17-18.8 70.97-15.08Q70.9-17.23 70.01-18.69 69.12-20.15 67.61-20.9 66.09-21.65 64.15-21.65L64.15-21.65Q61.05-21.65 59.41-19.85 57.77-18.05 57.77-14.55L57.77-14.55 57.77-9.9Q57.77-6.45 59.41-4.65 61.05-2.85 64.15-2.85L64.15-2.85Q66-2.85 67.42-3.56 68.84-4.28 69.78-5.54 70.72-6.8 71.07-8.4L71.07-8.4 72.07-5.5 70.87-5.5Q70.52-3.85 69.53-2.48 68.55-1.1 66.88-0.29 65.22 0.53 62.72 0.53ZM74.92-33.13L74.92 0 70.87 0 71.05-5.9 70.97-7.2 70.97-17.4 71-18.25 70.9-25.18 70.9-33.13 74.92-33.13ZM91.77 0.55L91.77 0.55Q86.19 0.55 83.37-2.18 80.54-4.9 80.54-9.98L80.54-9.98 80.54-14.33Q80.54-19.48 83.17-22.26 85.79-25.05 90.84-25.05L90.84-25.05Q94.24-25.05 96.52-23.79 98.79-22.53 99.94-20.2 101.09-17.88 101.09-14.65L101.09-14.65 101.09-13.75Q101.09-12.95 101.03-12.15 100.97-11.35 100.87-10.58L100.87-10.58 97.14-10.58Q97.19-11.78 97.2-12.85 97.22-13.93 97.22-14.83L97.22-14.83Q97.22-17.05 96.5-18.59 95.79-20.13 94.38-20.94 92.97-21.75 90.84-21.75L90.84-21.75Q87.69-21.75 86.12-19.93 84.54-18.1 84.54-14.7L84.54-14.7 84.54-12.38 84.57-11.88 84.57-9.55Q84.57-8.03 85.02-6.8 85.47-5.58 86.43-4.69 87.39-3.8 88.88-3.34 90.37-2.88 92.42-2.88L92.42-2.88Q94.79-2.88 96.84-3.5 98.89-4.13 100.69-5.2L100.69-5.2 100.32-1.7Q98.69-0.68 96.54-0.06 94.39 0.55 91.77 0.55ZM100.02-13.63L100.02-10.58 82.67-10.58 82.67-13.63 100.02-13.63ZM130.86-10.63L130.86-10.63 121.69-10.63 121.69-14.08 130.76-14.08Q134.04-14.08 135.51-15.71 136.99-17.35 136.99-20.23L136.99-20.23 136.99-22.4Q136.99-25.33 135.53-26.93 134.06-28.53 130.81-28.53L130.81-28.53 121.66-28.53 121.66-31.95 130.89-31.95Q136.24-31.95 138.68-29.44 141.11-26.93 141.11-22.53L141.11-22.53 141.11-20.13Q141.11-15.68 138.65-13.15 136.19-10.63 130.86-10.63ZM123.09-11.2L123.09 0 118.99 0 118.99-31.95 123.06-31.95 123.06-13.05 123.09-11.2ZM150.66-24.4L150.66 0 146.61 0 146.61-24.4 150.66-24.4ZM148.64-28.4L148.64-28.4Q147.39-28.4 146.77-29.06 146.16-29.73 146.16-30.88L146.16-30.88 146.16-31Q146.16-32.18 146.77-32.83 147.39-33.48 148.64-33.48L148.64-33.48Q149.89-33.48 150.51-32.83 151.14-32.18 151.14-31L151.14-31 151.14-30.88Q151.14-29.7 150.51-29.05 149.89-28.4 148.64-28.4ZM161.21-14.93L161.21-14.93 160.28-18.05 161.28-18.1Q162.08-21.2 164.03-22.99 165.98-24.78 169.21-24.78L169.21-24.78Q170.01-24.78 170.65-24.65 171.28-24.53 171.78-24.35L171.78-24.35 172.03-20.43Q171.41-20.63 170.65-20.75 169.88-20.88 168.96-20.88L168.96-20.88Q166.21-20.88 164.17-19.35 162.13-17.82 161.21-14.93ZM161.41-16.9L161.41 0 157.36 0 157.36-24.4 161.31-24.4 161.11-17.2 161.41-16.9ZM194.51-15.8L194.51 0 190.48 0 190.66-5.93 190.51-6.55 190.51-14.33 190.53-15.75Q190.53-18.73 189.02-20.15 187.51-21.58 184.23-21.58L184.23-21.58Q181.61-21.58 179.42-20.83 177.23-20.08 175.53-19.07L175.53-19.07 175.91-22.53Q176.86-23.1 178.17-23.66 179.48-24.23 181.17-24.6 182.86-24.98 184.88-24.98L184.88-24.98Q187.51-24.98 189.34-24.34 191.18-23.7 192.32-22.5 193.46-21.3 193.98-19.6 194.51-17.9 194.51-15.8L194.51-15.8ZM182.08 0.53L182.08 0.53Q178.46 0.53 176.52-1.24 174.58-3 174.58-6.28L174.58-6.28 174.58-7Q174.58-10.38 176.67-12.04 178.76-13.7 183.31-14.35L183.31-14.35 191.03-15.45 191.26-12.5 183.81-11.43Q181.01-11.03 179.81-10.06 178.61-9.1 178.61-7.23L178.61-7.23 178.61-6.83Q178.61-4.9 179.79-3.88 180.98-2.85 183.36-2.85L183.36-2.85Q185.46-2.85 186.96-3.58 188.46-4.3 189.38-5.53 190.31-6.75 190.63-8.25L190.63-8.25 191.26-5.5 190.48-5.5Q190.13-3.9 189.17-2.53 188.21-1.15 186.48-0.31 184.76 0.53 182.08 0.53ZM209.58 0.5L209.58 0.5Q206.75 0.5 205.03-0.35 203.3-1.2 202.53-2.93 201.75-4.65 201.75-7.23L201.75-7.23 201.75-22.63 205.75-22.63 205.75-7.7Q205.75-5.3 206.85-4.16 207.95-3.03 210.55-3.03L210.55-3.03Q212.03-3.03 213.39-3.35 214.75-3.68 215.95-4.28L215.95-4.28 215.58-0.8Q214.4-0.2 212.83 0.15 211.25 0.5 209.58 0.5ZM215.7-24.05L215.33-20.8 197.75-20.8 197.75-24.05 215.7-24.05ZM205.83-31.03L205.65-23.65 201.78-23.65 201.75-30.5 205.83-31.03ZM230.73 0.55L230.73 0.55Q225.15 0.55 222.33-2.18 219.5-4.9 219.5-9.98L219.5-9.98 219.5-14.33Q219.5-19.48 222.13-22.26 224.75-25.05 229.8-25.05L229.8-25.05Q233.2-25.05 235.48-23.79 237.75-22.53 238.9-20.2 240.05-17.88 240.05-14.65L240.05-14.65 240.05-13.75Q240.05-12.95 239.99-12.15 239.93-11.35 239.83-10.58L239.83-10.58 236.1-10.58Q236.15-11.78 236.16-12.85 236.18-13.93 236.18-14.83L236.18-14.83Q236.18-17.05 235.46-18.59 234.75-20.13 233.34-20.94 231.93-21.75 229.8-21.75L229.8-21.75Q226.65-21.75 225.08-19.93 223.5-18.1 223.5-14.7L223.5-14.7 223.5-12.38 223.53-11.88 223.53-9.55Q223.53-8.03 223.98-6.8 224.43-5.58 225.39-4.69 226.35-3.8 227.84-3.34 229.33-2.88 231.38-2.88L231.38-2.88Q233.75-2.88 235.8-3.5 237.85-4.13 239.65-5.2L239.65-5.2 239.28-1.7Q237.65-0.68 235.5-0.06 233.35 0.55 230.73 0.55ZM238.98-13.63L238.98-10.58 221.63-10.58 221.63-13.63 238.98-13.63Z" opacity="1" transform="matrix(1,0,0,1,0,0)" fill="black" class="slogan-text-1" id="SvgjsPath5781" stroke-width="7" stroke="black" stroke-linejoin="round"></path></svg></g></svg></g></svg></g></svg></g></svg></g></svg></g></svg></g></mask><g transform="matrix(1,0,0,1,69.6855850860041,37.08)"><svg viewBox="0 0 256.1488298279918 173.04" height="173.04" width="256.1488298279918"><g><svg viewBox="0 0 256.1488298279918 173.04" height="173.04" width="256.1488298279918"><g><svg viewBox="0 0 316.416 213.7531710637417" height="173.04" width="256.1488298279918"><g><svg viewBox="0 0 316.416 213.7531710637417" height="213.7531710637417" width="316.416"><g id="textblocktransform"><svg viewBox="0 0 316.416 213.7531710637417" height="213.7531710637417" width="316.416" id="textblock"><g><svg viewBox="0 0 316.416 135.25362229747327" height="135.25362229747327" width="316.416"><g transform="matrix(1,0,0,1,0,0)"><svg width="316.416" viewBox="-0.2200000000000002 -37.48 96.96 42.029999999999994" height="135.25362229747327" data-palette-color="#0d3b66"><path d="M7.88 0L3.78 0 3.78-31.95 7.88-31.95 7.88 0ZM23.7 0L5 0 5-3.48 23.7-3.48 23.7 0ZM23.18-14.58L6.13-14.58 6.13-18.03 23.18-18.03 23.18-14.58ZM23.55-28.48L4.98-28.48 4.98-31.95 23.55-31.95 23.55-28.48ZM33.6 0L29.57 0 29.57-33.13 33.6-33.13 33.6 0ZM49.02-2.78L49.62-2.78 56.37-24.4 60.57-24.4 52.65 0 46 0 38.07-24.4 42.27-24.4 49.02-2.78ZM69.04 0L64.99 0 64.99-24.4 69.04-24.4 69.04 0ZM67.02-28.4L67.02-28.4Q65.77-28.4 65.16-29.06 64.54-29.73 64.54-30.88L64.54-30.88 64.54-31Q64.54-32.18 65.16-32.83 65.77-33.48 67.02-33.48L67.02-33.48Q68.27-33.48 68.89-32.83 69.52-32.18 69.52-31L69.52-31 69.52-30.88Q69.52-29.7 68.89-29.05 68.27-28.4 67.02-28.4ZM83.27 0.55L83.27 0.55Q80.32 0.55 78.12-0.09 75.92-0.73 74.47-1.48L74.47-1.48 74.09-5.23Q75.92-4.28 78.1-3.58 80.29-2.88 83.07-2.88L83.07-2.88Q85.89-2.88 87.32-3.78 88.74-4.67 88.74-6.45L88.74-6.45 88.74-6.73Q88.74-7.88 88.2-8.63 87.67-9.38 86.27-9.95 84.87-10.53 82.29-11.1L82.29-11.1Q79.22-11.78 77.44-12.69 75.67-13.6 74.9-14.95 74.14-16.3 74.14-18.25L74.14-18.25 74.14-18.48Q74.14-21.68 76.37-23.33 78.59-24.98 83.07-24.98L83.07-24.98Q85.94-24.98 88.05-24.33 90.17-23.68 91.52-22.88L91.52-22.88 91.89-19.45Q90.27-20.4 88.17-21.03 86.07-21.65 83.44-21.65L83.44-21.65Q81.54-21.65 80.37-21.26 79.19-20.88 78.67-20.16 78.14-19.45 78.14-18.45L78.14-18.45 78.14-18.25Q78.14-17.15 78.67-16.39 79.19-15.63 80.55-15.06 81.92-14.5 84.34-13.98L84.34-13.98Q87.47-13.35 89.3-12.48 91.14-11.6 91.94-10.26 92.74-8.93 92.74-6.83L92.74-6.83 92.74-6.4Q92.74-2.95 90.34-1.2 87.94 0.55 83.27 0.55Z" opacity="1" transform="matrix(1,0,0,1,0,0)" fill="#0d3b66" class="wordmark-text-0" data-fill-palette-color="primary" id="text-0"></path></svg></g></svg></g><g transform="matrix(1,0,0,1,3.5,161.73559217019428)"><svg viewBox="0 0 309.416 52.017578893547395" height="52.017578893547395" width="309.416"><g transform="matrix(1,0,0,1,0,0)"><svg width="309.416" viewBox="-1.4 -37.48 245.45000000000002 42.11" height="52.017578893547395" data-palette-color="#0d3b66"><path d="M14.45 0.58L14.45 0.58Q8.53 0.58 5.56-2.75 2.6-6.08 2.6-12.2L2.6-12.2 2.6-19.78Q2.6-25.9 5.55-29.21 8.5-32.52 14.4-32.52L14.4-32.52Q16.3-32.52 17.86-32.18 19.43-31.83 20.65-31.28 21.88-30.73 22.73-30.13L22.73-30.13 23.08-26.28Q21.6-27.33 19.61-28.11 17.63-28.9 14.95-28.9L14.95-28.9Q10.93-28.9 8.88-26.51 6.83-24.13 6.83-19.73L6.83-19.73 6.83-12.35Q6.83-7.98 8.9-5.56 10.98-3.15 15.1-3.15L15.1-3.15Q17.75-3.15 19.79-3.93 21.83-4.7 23.33-5.83L23.33-5.83 22.98-1.88Q22.13-1.28 20.88-0.7 19.63-0.13 18.01 0.23 16.4 0.58 14.45 0.58ZM38.37 0.63L38.37 0.63Q33.12 0.63 30.41-2.21 27.7-5.05 27.7-10.38L27.7-10.38 27.7-14.1Q27.7-19.4 30.42-22.23 33.15-25.05 38.37-25.05L38.37-25.05Q43.62-25.05 46.34-22.23 49.05-19.4 49.05-14.1L49.05-14.1 49.05-10.38Q49.05-5.05 46.34-2.21 43.62 0.63 38.37 0.63ZM38.37-2.68L38.37-2.68Q41.62-2.68 43.31-4.6 45-6.53 45-10.15L45-10.15 45-14.33Q45-17.93 43.31-19.84 41.62-21.75 38.37-21.75L38.37-21.75Q35.15-21.75 33.45-19.84 31.75-17.93 31.75-14.33L31.75-14.33 31.75-10.15Q31.75-6.53 33.45-4.6 35.15-2.68 38.37-2.68ZM62.72 0.53L62.72 0.53Q58.32 0.53 56.02-2.2 53.72-4.93 53.72-10.15L53.72-10.15 53.72-14.18Q53.72-19.43 56.05-22.19 58.37-24.95 62.9-24.95L62.9-24.95Q65.15-24.95 66.8-24.19 68.45-23.43 69.47-22.05 70.5-20.68 70.84-18.8L70.84-18.8 72.17-18.8 70.97-15.08Q70.9-17.23 70.01-18.69 69.12-20.15 67.61-20.9 66.09-21.65 64.15-21.65L64.15-21.65Q61.05-21.65 59.41-19.85 57.77-18.05 57.77-14.55L57.77-14.55 57.77-9.9Q57.77-6.45 59.41-4.65 61.05-2.85 64.15-2.85L64.15-2.85Q66-2.85 67.42-3.56 68.84-4.28 69.78-5.54 70.72-6.8 71.07-8.4L71.07-8.4 72.07-5.5 70.87-5.5Q70.52-3.85 69.53-2.48 68.55-1.1 66.88-0.29 65.22 0.53 62.72 0.53ZM74.92-33.13L74.92 0 70.87 0 71.05-5.9 70.97-7.2 70.97-17.4 71-18.25 70.9-25.18 70.9-33.13 74.92-33.13ZM91.77 0.55L91.77 0.55Q86.19 0.55 83.37-2.18 80.54-4.9 80.54-9.98L80.54-9.98 80.54-14.33Q80.54-19.48 83.17-22.26 85.79-25.05 90.84-25.05L90.84-25.05Q94.24-25.05 96.52-23.79 98.79-22.53 99.94-20.2 101.09-17.88 101.09-14.65L101.09-14.65 101.09-13.75Q101.09-12.95 101.03-12.15 100.97-11.35 100.87-10.58L100.87-10.58 97.14-10.58Q97.19-11.78 97.2-12.85 97.22-13.93 97.22-14.83L97.22-14.83Q97.22-17.05 96.5-18.59 95.79-20.13 94.38-20.94 92.97-21.75 90.84-21.75L90.84-21.75Q87.69-21.75 86.12-19.93 84.54-18.1 84.54-14.7L84.54-14.7 84.54-12.38 84.57-11.88 84.57-9.55Q84.57-8.03 85.02-6.8 85.47-5.58 86.43-4.69 87.39-3.8 88.88-3.34 90.37-2.88 92.42-2.88L92.42-2.88Q94.79-2.88 96.84-3.5 98.89-4.13 100.69-5.2L100.69-5.2 100.32-1.7Q98.69-0.68 96.54-0.06 94.39 0.55 91.77 0.55ZM100.02-13.63L100.02-10.58 82.67-10.58 82.67-13.63 100.02-13.63ZM130.86-10.63L130.86-10.63 121.69-10.63 121.69-14.08 130.76-14.08Q134.04-14.08 135.51-15.71 136.99-17.35 136.99-20.23L136.99-20.23 136.99-22.4Q136.99-25.33 135.53-26.93 134.06-28.53 130.81-28.53L130.81-28.53 121.66-28.53 121.66-31.95 130.89-31.95Q136.24-31.95 138.68-29.44 141.11-26.93 141.11-22.53L141.11-22.53 141.11-20.13Q141.11-15.68 138.65-13.15 136.19-10.63 130.86-10.63ZM123.09-11.2L123.09 0 118.99 0 118.99-31.95 123.06-31.95 123.06-13.05 123.09-11.2ZM150.66-24.4L150.66 0 146.61 0 146.61-24.4 150.66-24.4ZM148.64-28.4L148.64-28.4Q147.39-28.4 146.77-29.06 146.16-29.73 146.16-30.88L146.16-30.88 146.16-31Q146.16-32.18 146.77-32.83 147.39-33.48 148.64-33.48L148.64-33.48Q149.89-33.48 150.51-32.83 151.14-32.18 151.14-31L151.14-31 151.14-30.88Q151.14-29.7 150.51-29.05 149.89-28.4 148.64-28.4ZM161.21-14.93L161.21-14.93 160.28-18.05 161.28-18.1Q162.08-21.2 164.03-22.99 165.98-24.78 169.21-24.78L169.21-24.78Q170.01-24.78 170.65-24.65 171.28-24.53 171.78-24.35L171.78-24.35 172.03-20.43Q171.41-20.63 170.65-20.75 169.88-20.88 168.96-20.88L168.96-20.88Q166.21-20.88 164.17-19.35 162.13-17.82 161.21-14.93ZM161.41-16.9L161.41 0 157.36 0 157.36-24.4 161.31-24.4 161.11-17.2 161.41-16.9ZM194.51-15.8L194.51 0 190.48 0 190.66-5.93 190.51-6.55 190.51-14.33 190.53-15.75Q190.53-18.73 189.02-20.15 187.51-21.58 184.23-21.58L184.23-21.58Q181.61-21.58 179.42-20.83 177.23-20.08 175.53-19.07L175.53-19.07 175.91-22.53Q176.86-23.1 178.17-23.66 179.48-24.23 181.17-24.6 182.86-24.98 184.88-24.98L184.88-24.98Q187.51-24.98 189.34-24.34 191.18-23.7 192.32-22.5 193.46-21.3 193.98-19.6 194.51-17.9 194.51-15.8L194.51-15.8ZM182.08 0.53L182.08 0.53Q178.46 0.53 176.52-1.24 174.58-3 174.58-6.28L174.58-6.28 174.58-7Q174.58-10.38 176.67-12.04 178.76-13.7 183.31-14.35L183.31-14.35 191.03-15.45 191.26-12.5 183.81-11.43Q181.01-11.03 179.81-10.06 178.61-9.1 178.61-7.23L178.61-7.23 178.61-6.83Q178.61-4.9 179.79-3.88 180.98-2.85 183.36-2.85L183.36-2.85Q185.46-2.85 186.96-3.58 188.46-4.3 189.38-5.53 190.31-6.75 190.63-8.25L190.63-8.25 191.26-5.5 190.48-5.5Q190.13-3.9 189.17-2.53 188.21-1.15 186.48-0.31 184.76 0.53 182.08 0.53ZM209.58 0.5L209.58 0.5Q206.75 0.5 205.03-0.35 203.3-1.2 202.53-2.93 201.75-4.65 201.75-7.23L201.75-7.23 201.75-22.63 205.75-22.63 205.75-7.7Q205.75-5.3 206.85-4.16 207.95-3.03 210.55-3.03L210.55-3.03Q212.03-3.03 213.39-3.35 214.75-3.68 215.95-4.28L215.95-4.28 215.58-0.8Q214.4-0.2 212.83 0.15 211.25 0.5 209.58 0.5ZM215.7-24.05L215.33-20.8 197.75-20.8 197.75-24.05 215.7-24.05ZM205.83-31.03L205.65-23.65 201.78-23.65 201.75-30.5 205.83-31.03ZM230.73 0.55L230.73 0.55Q225.15 0.55 222.33-2.18 219.5-4.9 219.5-9.98L219.5-9.98 219.5-14.33Q219.5-19.48 222.13-22.26 224.75-25.05 229.8-25.05L229.8-25.05Q233.2-25.05 235.48-23.79 237.75-22.53 238.9-20.2 240.05-17.88 240.05-14.65L240.05-14.65 240.05-13.75Q240.05-12.95 239.99-12.15 239.93-11.35 239.83-10.58L239.83-10.58 236.1-10.58Q236.15-11.78 236.16-12.85 236.18-13.93 236.18-14.83L236.18-14.83Q236.18-17.05 235.46-18.59 234.75-20.13 233.34-20.94 231.93-21.75 229.8-21.75L229.8-21.75Q226.65-21.75 225.08-19.93 223.5-18.1 223.5-14.7L223.5-14.7 223.5-12.38 223.53-11.88 223.53-9.55Q223.53-8.03 223.98-6.8 224.43-5.58 225.39-4.69 226.35-3.8 227.84-3.34 229.33-2.88 231.38-2.88L231.38-2.88Q233.75-2.88 235.8-3.5 237.85-4.13 239.65-5.2L239.65-5.2 239.28-1.7Q237.65-0.68 235.5-0.06 233.35 0.55 230.73 0.55ZM238.98-13.63L238.98-10.58 221.63-10.58 221.63-13.63 238.98-13.63Z" opacity="1" transform="matrix(1,0,0,1,0,0)" fill="#0d3b66" class="slogan-text-1" data-fill-palette-color="secondary" id="text-1"></path></svg></g></svg></g></svg></g></svg></g></svg></g></svg></g></svg></g><g mask="url(#58ef7980-007c-4e28-a6f1-3a205ef1b4a3)"><g transform="matrix(2.616449298355893, 0, 0, 2.616449298355893, 102.42337689621534, 1)"><svg xmlns="http://www.w3.org/2000/svg" xmlns:xlink="http://www.w3.org/1999/xlink" version="1.1" x="0" y="0" viewBox="11.083778711289966 0.6852086780060489 72.87481027336676 93.71479132199394" enable-background="new 0 0 95 95" xml:space="preserve" width="72.87481027336676" height="93.71479132199394" class="icon-none" data-fill-palette-color="accent" id="none"><g fill="#0d3b66" data-fill-palette-color="accent"><path d="M28.6 45.1c-0.6-0.2-1.3 0.2-1.5 0.8-1.1 3.4 1.3 5.3 3.2 6.8 0.7 0.6 1.4 1.1 1.9 1.7 0.2 0.3 0.6 0.4 0.9 0.4 0.3 0 0.5-0.1 0.7-0.3 0.5-0.4 0.6-1.1 0.1-1.6-0.6-0.8-1.5-1.4-2.3-2-1.9-1.5-3-2.4-2.4-4.2C29.6 46 29.2 45.3 28.6 45.1z" fill="#0d3b66" data-fill-palette-color="accent"></path><path d="M32.2 48.4c0.3 2.3 0.5 2.9 1.6 3.5 0.2 0.1 0.4 0.2 0.8 0.7 0.1 0.2 0.3 0.3 0.5 0.4 0.4 0.1 0.8 0.1 1.1-0.2 0.5-0.4 0.6-1.1 0.1-1.6-0.7-0.8-1.2-1.1-1.5-1.2 0 0 0 0 0 0-0.1-0.2-0.2-0.6-0.3-1.7-0.1-0.6-0.7-1.1-1.3-1C32.5 47.2 32.1 47.8 32.2 48.4z" fill="#0d3b66" data-fill-palette-color="accent"></path><path d="M37.9 54.5c-0.8-0.2-1.6 0.2-1.8 1-0.3 1.2-1.2 2.8-1.8 2.9-0.2 0-0.7-0.2-1.4-1.2-1.2-1.6-2.5-2.9-3.6-4-2.7-2.6-4.4-4.4-3.8-8 0.1-0.8 0.5-2.2 1.3-2.4 1-0.3 2.7 0.7 3.3 1.3 0.6 0.6 1.5 0.6 2.1 0 0.6-0.6 0.6-1.5 0-2.1-0.9-0.9-3.6-2.9-6.3-2.1-1.2 0.4-2.8 1.5-3.3 4.7-0.9 5.2 1.7 7.8 4.6 10.6 1.1 1.1 2.3 2.3 3.4 3.7 1.2 1.6 2.4 2.4 3.7 2.4 0.2 0 0.4 0 0.6-0.1 2.7-0.5 3.9-4.2 4.1-5C39.1 55.5 38.6 54.7 37.9 54.5z" fill="#0d3b66" data-fill-palette-color="accent"></path><path d="M70.2 4c-0.5 0.5-1.1 0.8-1.8 0.8-5.7 0.2-32.2 1.7-44 15.4C24 20.6 23.5 20.9 23 21 20 21.8 9.1 25.7 11.4 43.3c2.2 17 5 11.2 7.9 18.3 0.2 0.9 0.4 1.8 0.7 2.7 1.3 4.8 2.7 10.2-0.2 13.1-0.5 0.5-0.6 1.2-0.3 1.7 0.3 0.6 0.9 0.9 1.6 0.8 0 0 0.7-0.1 1.8-0.1 3 0 8.7 0.9 13.7 6.8 6.5 7.7 15.2 7.8 15.5 7.8 0.8 0 1.4-0.6 1.5-1.4 0.4-5.4 1.6-10.7 2.6-11.3 0.2-0.1 0.7-0.3 1.8-0.3 1.3 0 2.9 0.2 4.5 0.4 1.6 0.2 3.1 0.4 4.4 0.4 0.6 0 1 0 1.5-0.1 2.5-0.5 4.5-2 5.5-4.1 0.9-2 0.7-4.3-0.6-6.5-0.7-1.3-0.5-1.5-0.1-2 0.4-0.4 1-1.1 0.8-2.1-0.2-1.1-1.1-1.8-2.4-2.6-0.3-0.2-0.4-0.3-0.5-0.4 0.2-0.2 0.6-0.5 0.8-0.6 0.9-0.6 1.9-1.3 2-2.5 0-0.5-0.1-1.1-0.6-1.7-0.1-0.3 0.1-1.3 0.2-1.7 0-0.1 0-0.2 0.1-0.3 0.8-0.2 2.1-0.6 3.7-1.3 1.5-0.6 2-1.7 2.2-2.4 0.6-2.2-1-4.7-1.6-5.5-2.8-3.4-4.6-8.3-3.7-9 3.6-3 1.4-7.2-1-11.6-0.6-1.1-1.2-2.3-1.8-3.5 2.2-0.5 4.4-0.9 6.8-1.3C89.8 20.7 82.2-9.1 70.2 4zM70.5 29.1c1.9 3.6 2.9 5.6 2.4 6.9-0.2 0.4-1.8 0.5-3.1 0.6-3.1 0.2-7.3 0.5-11.4 3.5-0.7 0.5-0.8 1.4-0.3 2.1 0.3 0.4 0.7 0.6 1.2 0.6 0.3 0 0.6-0.1 0.9-0.3 3.5-2.6 7-2.8 9.9-3 0.3 0 0.6 0 0.9-0.1-0.5 4.2 4.5 10.7 4.6 10.7 0.5 0.6 1.2 2.1 1 2.9 0 0.1-0.1 0.3-0.4 0.4-2 0.8-3.4 1.2-4 1.4-0.4 0.1-1.4 0.4-1.5 1.5 0 0 0 0 0 0 0 0.2-0.1 0.5-0.2 0.8-0.3 1.1-0.6 2.6 0.1 3.8-0.2 0.1-0.3 0.2-0.5 0.3-1 0.7-2.3 1.6-2.2 3.1 0.1 1.6 1.6 2.5 2.1 2.8 0.3 0.2 0.6 0.4 0.7 0.5-0.7 0.8-1.7 2.4-0.1 5.2 0.8 1.4 1 2.7 0.4 3.8-0.5 1.2-1.8 2.1-3.3 2.4-0.2 0-0.5 0.1-0.9 0.1-1.1 0-2.5-0.2-4-0.4-1.7-0.2-3.4-0.5-4.9-0.5-1.4 0-2.4 0.2-3.2 0.6-2.6 1.4-3.6 8.1-4 12.2-2.4-0.3-7.7-1.6-12-6.6-5.3-6.3-11.5-7.6-15.2-7.8 1.4-3.4 0.6-7.6-0.3-11.4 0.3-0.1 0.6-0.2 0.9-0.5l2.7-2.4c0.9-0.8 1.2-2.2 0.5-3.3l-3-5c-0.1-0.2-0.2-0.5-0.3-0.8 0-0.2-0.1-0.3-0.1-0.6-0.1-0.3-0.2-0.7-0.4-1-1.3-1.9-2.1-4.2-1.5-7.5 0.6-3.5 2.3-4.7 3.7-5.1 0.5-0.1 0.9-0.2 1.4-0.2 2.3 0 4.5 1.6 5.3 2.4 0 0 0.1 0.1 0.1 0.1 0.3 0.1 0.6 0.3 0.9 0.4 0.2 0.1 0.4 0.2 0.5 0.3 1.2 0.9 5.9 5 7.1 11.5 0.3 1.3 1.5 2.3 2.9 2.1l1.7-0.2c1.2-0.2 2.1-1.1 2.2-2.3 0.7-6.5-4.8-21.4-3.6-22.1 0 0 10.2-3.6 24-6.7C69.1 26.3 69.8 27.7 70.5 29.1z" fill="#0d3b66" data-fill-palette-color="accent"></path></g></svg></g></g></svg></g><defs></defs></svg><rect width="395.52" height="247.2" fill="none" stroke="none" visibility="hidden"></rect></g></svg></g></svg>